<svg xmlns="http://www.w3.org/2000/svg" viewBox="0 0 250 150"><defs><style>.cls-1{fill:#f2b809;}.cls-2{fill:#c99706;}.cls-3{fill:#b4dee7;}.cls-4{fill:#c0e1e7;}.cls-5{fill:#8e6714;}.cls-6{fill:#6659a3;}.cls-7{fill:#504596;}.cls-8{fill:#2d2d7f;}.cls-9{fill:#eaeaea;}.cls-10{fill:#8b8b8c;}.cls-11{font-size:19.16px;fill:#1d1d1b;font-family:FrenchScriptMT, French Script MT;}.cls-12{letter-spacing:-0.01em;}</style></defs><g id="Capa_4" data-name="Capa 4"><path class="cls-1" d="M128.29,36.67a30.89,30.89,0,0,1,5.32-10.54,24.46,24.46,0,0,1,6.81-6.31,22.71,22.71,0,0,1,8.17-3.07,24,24,0,0,1,7.41.13,28.7,28.7,0,0,1,13.66,4.72A21,21,0,0,1,173,24.41c3.86,4.08,4.93,8.74,5.61,11.87.83,3.82,1.88,8.67,0,14.43a24.47,24.47,0,0,1-10.72,13,26.74,26.74,0,0,1-16,3.83,26,26,0,0,1-17.36-8.17,25.75,25.75,0,0,1-6.51-16"/><path class="cls-2" d="M133.36,24.05c-2,1.42-5.77,4.58-5.28,8a4.87,4.87,0,0,0,1.17,2.42c6.94,8.29,34.67,27.26,44.32,27.07a5.15,5.15,0,0,0,2.78-.78c2.58-1.7,2.7-5.7,2.66-7.4"/><path class="cls-3" d="M101.54,120.33a3.57,3.57,0,0,0,5.85,4.08L119,104.86l14.29-23.14L143,65.41l-6.48-4.2Z"/><path class="cls-4" d="M106.1,123.55l-4.85-1.27a1.73,1.73,0,0,0-.42,1.1c0,1.35,2,2.32,3.23,2.64a5.85,5.85,0,0,0,2.81,0l36.34-60.51-2-1-34.38,58"/><path class="cls-2" d="M142.7,65.57a44,44,0,0,1-7-9.25c-2.1-3.75-2.58-6-2.73-7.53,0-.24-.07-1.39-.09-2.88,0-1.28,0-1.92,0-2.68a24.36,24.36,0,0,1,.76-4.46,25,25,0,0,1,.78-2.39c.15-.42.38-1.05.74-1.83a23.32,23.32,0,0,1,1.4-2.61,19.91,19.91,0,0,1,3-3.91,18.34,18.34,0,0,1,2.58-2.09c3.22-2.23,6.15-4.26,10.6-5.43a28.47,28.47,0,0,1,7.15-.89c4.35,0,6.89,1,6.95.76s-6.48-4.23-14.93-3.86A23.77,23.77,0,0,0,140.18,20a24.05,24.05,0,0,0-5.37,4.67,31.6,31.6,0,0,0-5.87,10,21.94,21.94,0,0,0-1.24,6.39s0,.13,0,.26A27.09,27.09,0,0,0,129,50a23.42,23.42,0,0,0,4.91,9.13,21.68,21.68,0,0,0,3.9,3.38"/><path class="cls-5" d="M133.6,39a11.56,11.56,0,0,1-3.3-2.77,11.7,11.7,0,0,1-1.18-1.75,29.35,29.35,0,0,1,5.39-9.57l5,3.18a27.68,27.68,0,0,0-3.82,5.59A26.82,26.82,0,0,0,133.6,39Z"/></g><g id="Capa_2" data-name="Capa 2"><path class="cls-6" d="M70.66,37.36A30.75,30.75,0,0,1,76,26.82a24.68,24.68,0,0,1,6.82-6.31A22.55,22.55,0,0,1,91,17.45a24.31,24.31,0,0,1,7.4.12A28.62,28.62,0,0,1,112,22.3a20.18,20.18,0,0,1,3.32,2.81c3.87,4.08,4.94,8.74,5.62,11.87.82,3.82,1.88,8.67,0,14.42a24.55,24.55,0,0,1-10.73,13,26.79,26.79,0,0,1-16,3.83,26.07,26.07,0,0,1-17.37-8.17,25.83,25.83,0,0,1-6.51-16"/><path class="cls-7" d="M69.84,51.51c.31,2.39,1.27,7.25,4.46,8.43a4.88,4.88,0,0,0,2.69.13c10.59-2.15,40.5-17.46,44.93-26a5.09,5.09,0,0,0,.64-2.81c-.26-3.08-3.72-5.09-5.23-5.87"/><path class="cls-3" d="M140.8,125.79a3.57,3.57,0,0,0,6.38-3.19l-11.62-19.53L122.08,79.45,112.42,63.1l-6.79,3.68Z"/><path class="cls-4" d="M142.74,124.91l4.85-1.27a1.81,1.81,0,0,1,.43,1.1c0,1.36-2,2.33-3.24,2.64a5.72,5.72,0,0,1-2.81,0L105.63,66.87l2-1,34.38,58"/><path class="cls-7" d="M110.47,63.66a34,34,0,0,1-11.24,1.15,22.81,22.81,0,0,1-9.12-2,34.46,34.46,0,0,1-5.94-4,20.46,20.46,0,0,1-2.81-2.49,21.67,21.67,0,0,1-2.13-2.82,15.1,15.1,0,0,1-1.51-2.67c-.24-.57-.28-.79-.7-2.11-.67-2.12-.79-2.28-1-3.06a18.62,18.62,0,0,1-.59-4.8,26.58,26.58,0,0,1,.1-4.88,24.87,24.87,0,0,1,.94-4.36,21.55,21.55,0,0,1,2.23-5.11,17.35,17.35,0,0,1,2.17-2.94,23.73,23.73,0,0,1,3.58-3.06c1.64-1.23,2.38-1.61,2.34-1.68S81.5,20.16,77,24.32a23.26,23.26,0,0,0-6.52,10.4,24.12,24.12,0,0,0-.91,7.06,31.82,31.82,0,0,0,2.27,11.4,22,22,0,0,0,3.33,5.6,2.37,2.37,0,0,0,.16.2,26.91,26.91,0,0,0,6.73,5.63,26.2,26.2,0,0,0,22.59,2.3"/><path class="cls-8" d="M83.31,58.13a34.5,34.5,0,0,1-4.51,1.5c-.83.22-1.63.39-2.39.53a22.85,22.85,0,0,1-5.5-9.6l5.58-3a31.56,31.56,0,0,0,2.57,5.16A30.39,30.39,0,0,0,83.31,58.13Z"/></g><g id="Capa_5" data-name="Capa 5"><path class="cls-9" d="M131.79,87.09A29,29,0,0,0,124,83a30.81,30.81,0,0,0-15.86-1,28,28,0,0,0-11.59,4.52,18.47,18.47,0,0,0-5.93,6c-1,1.73-2.85,4.92-2.56,8.88.14,1.74.66,3.35-.19,4-.64.5-1.42,0-3.13.13a9.4,9.4,0,0,0-3.31,1.08c-3.14,1.43-4.71,2.14-5.81,3.13a11.39,11.39,0,0,0-3.71,8.36,11.28,11.28,0,0,0,3,7c3.71,4.2,9.27,4.9,11.43,5.17,6,.75,43.28,5.49,83,0,1.43-.2,4.72-.7,6.7-3.25a7.11,7.11,0,0,0,1.28-6.32c-1.23-3.71-6-4.81-7.28-5.11-4.52-1.05-7.75.66-8.3-.45s2.84-2.55,4.28-6.7a12.67,12.67,0,0,0,.06-7.53,14.33,14.33,0,0,0-3.38-5.87,20.77,20.77,0,0,0-9.57-5.87,25.75,25.75,0,0,0-10-1.35,25.22,25.22,0,0,0-7.66,1.79"/></g><g id="Capa_6" data-name="Capa 6"><path class="cls-10" d="M93.57,101.06a1.8,1.8,0,0,0,1.41.81,1.68,1.68,0,0,0,1.36-.51c.38-.48.1-.94.21-2a8.53,8.53,0,0,1,.71-2.21,14,14,0,0,1,1.12-2.34,11.27,11.27,0,0,1,3-3,16.92,16.92,0,0,1,3.69-2.35,16,16,0,0,1,4-1.22A22.58,22.58,0,0,1,113,87.7a2.27,2.27,0,0,0,1.76-.33,1.08,1.08,0,0,0,.41-.85c-.05-.55-.74-.85-1-1a3,3,0,0,0-1.43-.19c-2,.11-3.19.3-3.19.3-1.28.21-1.93.31-2.51.47a17.6,17.6,0,0,0-2.64,1,20.12,20.12,0,0,0-5.27,3.06,18.31,18.31,0,0,0-2.94,3.15,15.92,15.92,0,0,0-1.83,3.15,12.55,12.55,0,0,0-.64,1.91C93.36,99.75,93.19,100.45,93.57,101.06Z"/><text class="cls-11" transform="translate(93.35 117.41) scale(0.91 1)">Bu<tspan class="cls-12" x="19.56" y="0">b</tspan><tspan x="25.69" y="0">le Blog</tspan></text></g></svg>